<svg width="448" height="457" xmlns="http://www.w3.org/2000/svg" xmlns:xlink="http://www.w3.org/1999/xlink" overflow="hidden"><defs><clipPath id="clip0"><rect x="329" y="145" width="448" height="457"/></clipPath><clipPath id="clip1"><rect x="329" y="147" width="1276" height="453"/></clipPath></defs><g clip-path="url(#clip0)" transform="translate(-329 -145)"><g clip-path="url(#clip1)"><path d="M0 301.063 74.5018 301.063 74.5018 75.2623 298.021 75.2623 298.021 0 0 0 0 301.063Z" fill="#5B29DA" transform="matrix(1 0 0 1.00119 329.013 147.437)"/><path d="M1044.16 217.49C1044.29 243.678 1043.47 264.707 1041.71 280.575 1039.95 296.444 1037.96 309.614 1035.73 320.083L1058.77 320.083C1061.56 315.925 1064.14 302.756 1066.52 280.575 1068.01 266.466 1068.83 245.437 1068.98 217.49L1044.16 217.49Z" fill="#5B29DA" transform="matrix(1 0 0 1.00119 329.013 147.437)"/><path d="M1152.38 217.49C1152.25 243.678 1153.06 264.707 1154.82 280.575 1156.58 296.444 1158.57 309.614 1160.8 320.083L1137.74 320.083C1134.94 315.925 1132.36 302.756 1129.99 280.575 1128.5 266.466 1127.68 245.437 1127.53 217.49L1152.38 217.49Z" fill="#5B29DA" transform="matrix(1 0 0 1.00119 329.013 147.437)"/><path d="M1075.53 124.351 1085.44 153.996 1052.1 153.996 1042.19 124.351 1075.53 124.351Z" fill="#5B29DA" transform="matrix(1 0 0 1.00119 329.013 147.437)"/><path d="M1121.49 124.351 1111.58 153.996 1144.92 153.996 1154.83 124.351 1121.49 124.351Z" fill="#5B29DA" transform="matrix(1 0 0 1.00119 329.013 147.437)"/><path d="M1106.53 75.6715 1116.45 105.316 1083.47 105.316 1073.56 75.6715 1106.53 75.6715Z" fill="#5B29DA" transform="matrix(1 0 0 1.00119 329.013 147.437)"/><path d="M1038.39 90.501 1158.63 90.501 1158.63 109.719 1038.39 109.719Z" fill="#5B29DA" transform="matrix(1 0 0 1.00119 329.013 147.437)"/><path d="M1038.39 153.996 1158.63 153.996 1158.63 173.213 1038.39 173.213Z" fill="#5B29DA" transform="matrix(1 0 0 1.00119 329.013 147.437)"/><path d="M1181.71 141.452 1275.74 141.452 1275.74 160.67 1181.71 160.67Z" fill="#5B29DA" transform="matrix(1 0 0 1.00119 329.013 147.437)"/><path d="M1038.39 186.956 1158.63 186.956 1158.63 206.174 1038.39 206.174Z" fill="#5B29DA" transform="matrix(1 0 0 1.00119 329.013 147.437)"/><path d="M1081.17 162.405 1112.35 162.405 1112.35 320.154 1081.17 320.154Z" fill="#5B29DA" transform="matrix(1 0 0 1.00119 329.013 147.437)"/><path d="M1234.25 151.061 1266.07 151.061 1266.07 320.168 1234.25 320.168Z" fill="#5B29DA" transform="matrix(1 0 0 1.00119 329.013 147.437)"/><path d="M1176.02 98.2192C1176.95 201.146 1176.27 260.464 1173.97 276.173 1171.67 291.882 1169.03 306.543 1166.05 320.154L1195.55 320.154C1199.34 312.817 1202.75 298.156 1205.77 276.173 1207.7 262.214 1208.34 197.534 1207.69 82.1338L1176.02 98.2192Z" fill="#5B29DA" transform="matrix(1 0 0 1.00119 329.013 147.437)"/><path d="M1275.75 94.5082 1275.75 75.2622C1261.41 77.8679 1242.94 79.1707 1220.35 79.1707 1207.38 79.1707 1202.2 78.9732 1176.02 78.9732L1176.02 98.2192 1199.42 98.4166 1233.39 98.2474C1252.01 97.7393 1266.13 96.4929 1275.75 94.5082Z" fill="#5B29DA" transform="matrix(1 0 0 1.00119 329.013 147.437)"/><path d="M792.172 79.848 792.172 315.483 969.152 315.483C979.952 315.483 988.707 306.64 988.707 295.729L988.707 79.848 792.172 79.848ZM952.629 186.18 828.32 186.18 828.32 102.932 952.629 102.932 952.629 186.18ZM947.168 292.753 828.306 292.753 828.306 209.236 952.615 209.236 952.615 287.222C952.615 290.271 950.173 292.745 947.154 292.753" fill="#5B29DA" transform="matrix(1 0 0 1.00119 329.013 147.437)"/><path d="M549.713 315.554 726.693 315.554C737.509 315.562 746.293 306.727 746.332 295.8L746.332 79.9184 549.713 79.9184 549.713 315.554ZM704.75 292.752 585.888 292.752 585.888 209.236 710.198 209.236 710.198 287.222C710.205 290.268 707.767 292.745 704.75 292.752ZM710.198 186.18 585.888 186.18 585.888 102.932 710.198 102.932 710.198 186.18Z" fill="#5B29DA" transform="matrix(1 0 0 1.00119 329.013 147.437)"/><path d="M601.085 395.176C595.931 390.28 590.051 388.643 583.123 388.643 574.589 388.643 569.882 391.31 569.882 395.924 569.882 400.538 574.072 403.36 583.416 403.953 597.104 404.842 614.465 407.974 614.465 427.446 614.465 440.37 604.018 451.531 583.276 451.531 571.795 451.531 560.314 449.598 549.755 438.451L558.596 425.512C563.736 431.312 575.511 435.615 583.597 435.77 590.372 435.911 596.699 432.356 596.699 426.994 596.699 421.943 592.508 419.939 582.284 419.276 568.596 418.232 552.254 413.167 552.254 396.517 552.254 379.585 569.63 373.616 582.871 373.616 594.212 373.616 602.746 375.846 611.127 383.282L601.085 395.176Z" fill="#5B29DA" transform="matrix(1 0 0 1.00119 329.013 147.437)"/><path d="M641.297 418.881C642.47 427.94 650.278 434.487 662.932 434.487 669.553 434.487 678.296 431.961 682.361 427.643L693.842 439.101C686.188 447.129 673.673 450.995 662.639 450.995 637.609 450.995 622.748 435.376 622.748 411.883 622.748 389.589 637.763 373.532 661.312 373.532 685.601 373.532 700.756 388.7 697.962 418.881L641.297 418.881ZM680.741 403.854C679.567 394.344 672.206 389.589 661.899 389.589 652.122 389.589 644.244 394.344 641.59 403.854L680.741 403.854Z" fill="#5B29DA" transform="matrix(1 0 0 1.00119 329.013 147.437)"/><path d="M765.271 449.062 765.271 410.697C765.271 399.55 759.237 391.07 747.756 391.07 736.722 391.07 729.207 400.439 729.207 411.586L729.207 449.062 711.399 449.062 711.399 375.606 727.447 375.606 728.621 385.568C735.982 378.287 743.328 374.562 752.463 374.562 769.545 374.562 783.191 387.501 783.191 410.542L783.191 449.062 765.271 449.062Z" fill="#5B29DA" transform="matrix(1 0 0 1.00119 329.013 147.437)"/><path d="M846.128 395.176C840.974 390.28 835.094 388.643 828.166 388.643 819.632 388.643 814.911 391.31 814.911 395.924 814.911 400.538 819.185 403.36 828.459 403.953 842.147 404.842 859.508 407.974 859.508 427.446 859.508 440.37 849.061 451.531 828.319 451.531 816.838 451.531 805.357 449.598 794.798 438.451L803.639 425.512C808.779 431.312 820.554 435.615 828.64 435.77 835.415 435.911 841.742 432.356 841.742 426.994 841.742 421.943 837.635 419.939 827.327 419.276 813.639 418.232 797.297 413.167 797.297 396.517 797.297 379.585 814.673 373.616 827.914 373.616 839.255 373.616 847.789 375.846 856.17 383.282L846.128 395.176Z" fill="#5B29DA" transform="matrix(1 0 0 1.00119 329.013 147.437)"/><path d="M886.326 418.881C887.499 427.94 895.307 434.487 907.961 434.487 914.582 434.487 923.325 431.961 927.39 427.643L938.871 439.101C931.203 447.129 918.702 450.995 907.654 450.995 882.638 450.995 867.777 435.376 867.777 411.883 867.777 389.589 882.792 373.532 906.341 373.532 930.616 373.532 945.785 388.7 942.991 418.881L886.326 418.881ZM925.77 403.854C924.596 394.344 917.236 389.589 906.928 389.589 897.151 389.589 889.259 394.344 886.619 403.854L925.77 403.854Z" fill="#5B29DA" transform="matrix(1 0 0 1.00119 329.013 147.437)"/><path d="M1010.31 449.062 1010.31 410.697C1010.31 399.55 1004.28 391.07 992.799 391.07 981.765 391.07 974.25 400.439 974.25 411.586L974.25 449.062 956.442 449.062 956.442 375.606 972.49 375.606 973.664 385.568C981.025 378.287 988.371 374.562 997.506 374.562 1014.57 374.562 1028.23 387.501 1028.23 410.542L1028.23 449.062 1010.31 449.062Z" fill="#01FFB9" transform="matrix(1 0 0 1.00119 329.013 147.437)"/><path d="M1112.6 412.489C1112.6 433.654 1098.32 450.699 1074.77 450.699 1051.22 450.699 1037.06 433.598 1037.06 412.489 1037.06 391.381 1051.49 374.266 1074.61 374.266 1097.72 374.266 1112.57 391.522 1112.57 412.489M1055.02 412.489C1055.02 423.636 1061.64 434.035 1074.75 434.035 1087.85 434.035 1094.45 423.636 1094.45 412.489 1094.45 401.342 1086.81 390.774 1074.75 390.774 1061.8 390.774 1055.02 401.483 1055.02 412.489Z" fill="#01FFB9" transform="matrix(1 0 0 1.00119 329.013 147.437)"/><path d="M1195.51 375.606 1164.6 449.358 1145.18 449.358 1114.12 375.606 1133.7 375.606 1143.7 399.847 1154.89 430.776 1165.92 400.143 1175.94 375.606 1195.51 375.606Z" fill="#01FFB9" transform="matrix(1 0 0 1.00119 329.013 147.437)"/><path d="M1258.53 375.761 1275.75 375.761 1275.75 449.133 1258.82 449.133 1257.94 438.423C1253.75 447.044 1242.49 451.207 1234.39 451.362 1212.9 451.503 1197 438.127 1197 412.405 1197 387.134 1213.64 373.899 1234.83 374.04 1244.53 374.04 1253.81 378.654 1257.94 385.935L1258.53 375.761ZM1214.96 412.334C1214.96 426.317 1224.52 434.642 1236.45 434.642 1264.7 434.642 1264.7 390.182 1236.45 390.182 1224.52 390.182 1214.96 398.351 1214.96 412.334Z" fill="#01FFB9" transform="matrix(1 0 0 1.00119 329.013 147.437)"/><path d="M298.021 150.539 447.025 150.539 447.025 301.077 298.021 301.077Z" fill="#01FFB9" transform="matrix(1 0 0 1.00119 329.013 147.437)"/><path d="M149.018 451.602 298.021 451.602 298.021 301.063 149.018 301.063 149.018 451.602Z" fill="#01FFB9" transform="matrix(1 0 0 1.00119 329.013 147.437)"/><path d="M298.021 75.2622 74.5439 75.2622 74.5439 301.021 149.06 301.021 149.06 150.482 298.021 150.482 298.021 75.2622ZM298.021 451.588 447.039 451.588 447.039 301.063 298.021 301.063 298.021 451.588Z" fill="#5B29DA" transform="matrix(1 0 0 1.00119 329.013 147.437)"/><path d="M74.5018 75.2623 74.5018 80.2995 149.004 155.562 149.004 150.539 153.99 150.539 79.4882 75.2623 74.5018 75.2623Z" fill="#01FFB9" transform="matrix(1 0 0 1.00119 329.013 147.437)"/><path d="M98.4558 75.2623 172.958 150.539 182.93 150.539 108.415 75.2623 98.4558 75.2623Z" fill="#01FFB9" transform="matrix(1 0 0 1.00119 329.013 147.437)"/><path d="M127.382 75.2623 201.898 150.539 211.857 150.539 137.355 75.2623 127.382 75.2623Z" fill="#01FFB9" transform="matrix(1 0 0 1.00119 329.013 147.437)"/><path d="M156.323 75.2623 230.824 150.539 240.783 150.539 166.281 75.2623 156.323 75.2623Z" fill="#01FFB9" transform="matrix(1 0 0 1.00119 329.013 147.437)"/><path d="M185.263 75.2623 259.765 150.539 269.723 150.539 195.222 75.2623 185.263 75.2623Z" fill="#01FFB9" transform="matrix(1 0 0 1.00119 329.013 147.437)"/><path d="M214.189 75.2623 288.691 150.539 298.021 150.539 298.021 149.89 224.148 75.2623 214.189 75.2623Z" fill="#01FFB9" transform="matrix(1 0 0 1.00119 329.013 147.437)"/><path d="M243.116 75.2623 298.021 130.728 298.021 120.668 253.074 75.2623 243.116 75.2623Z" fill="#01FFB9" transform="matrix(1 0 0 1.00119 329.013 147.437)"/><path d="M298.021 91.4323 282.015 75.2623 272.056 75.2623 298.021 101.507 298.021 91.4323Z" fill="#01FFB9" transform="matrix(1 0 0 1.00119 329.013 147.437)"/><path d="M74.5018 284.893 90.5084 301.063 100.467 301.063 74.5018 274.833 74.5018 284.893Z" fill="#01FFB9" transform="matrix(1 0 0 1.00119 329.013 147.437)"/><path d="M74.5018 255.672 119.435 301.063 129.407 301.063 74.5018 245.597 74.5018 255.672Z" fill="#01FFB9" transform="matrix(1 0 0 1.00119 329.013 147.437)"/><path d="M74.5018 226.436 148.375 301.063 149.004 301.063 149.004 291.638 74.5018 216.376 74.5018 226.436Z" fill="#01FFB9" transform="matrix(1 0 0 1.00119 329.013 147.437)"/><path d="M74.5018 197.214 149.004 272.477 149.004 262.402 74.5018 187.14 74.5018 197.214Z" fill="#01FFB9" transform="matrix(1 0 0 1.00119 329.013 147.437)"/><path d="M74.5018 167.979 149.004 243.241 149.004 233.18 74.5018 157.918 74.5018 167.979Z" fill="#01FFB9" transform="matrix(1 0 0 1.00119 329.013 147.437)"/><path d="M74.5018 138.757 149.004 214.019 149.004 203.959 74.5018 128.697 74.5018 138.757Z" fill="#01FFB9" transform="matrix(1 0 0 1.00119 329.013 147.437)"/><path d="M74.5018 109.521 149.004 184.798 149.004 174.723 74.5018 99.4608 74.5018 109.521Z" fill="#01FFB9" transform="matrix(1 0 0 1.00119 329.013 147.437)"/></g></g></svg>